<?xml version="1.0" standalone="no"?>
<!DOCTYPE svg PUBLIC "-//W3C//DTD SVG 20010904//EN"
 "http://www.w3.org/TR/2001/REC-SVG-20010904/DTD/svg10.dtd">
<svg version="1.0" xmlns="http://www.w3.org/2000/svg"
 width="1194.000000pt" height="1280.000000pt" viewBox="0 0 1194.000000 1280.000000"
 preserveAspectRatio="xMidYMid meet">
<metadata>
Created by potrace 1.15, written by Peter Selinger 2001-2017
</metadata>
<g transform="translate(0.000000,1280.000000) scale(0.100000,-0.100000)"
fill="#000000" stroke="none">
<path d="M5774 12790 c-268 -30 -534 -127 -711 -259 -257 -191 -383 -472 -383
-857 0 -330 116 -657 339 -950 61 -80 63 -94 13 -94 -49 0 -250 -75 -385 -143
-330 -168 -834 -535 -1269 -924 -585 -524 -927 -1103 -1023 -1733 -23 -149
-30 -401 -16 -547 62 -633 395 -1289 1019 -2002 45 -51 82 -100 82 -106 0 -7
-83 -329 -185 -715 -102 -387 -185 -721 -185 -744 0 -117 65 -253 170 -356
183 -180 488 -299 970 -379 l165 -27 -125 -42 c-304 -101 -672 -195 -945 -241
-419 -71 -567 -75 -1305 -36 -284 15 -531 24 -580 21 -523 -38 -976 -383
-1344 -1024 l-77 -134 48 -66 c26 -37 115 -168 197 -292 426 -644 726 -994
946 -1105 80 -40 87 -40 95 -3 30 137 177 257 375 306 104 25 1351 187 1990
257 365 41 593 78 845 140 555 134 1012 355 1358 654 l118 103 56 -49 c164
-143 313 -240 538 -350 622 -304 1455 -487 2730 -598 160 -14 297 -28 305 -30
8 -3 87 -14 175 -25 282 -36 495 -93 649 -172 103 -53 195 -142 221 -213 10
-27 20 -51 21 -53 4 -6 149 71 215 115 126 82 273 223 401 383 26 33 601 903
651 987 8 13 -116 235 -204 363 -342 500 -751 773 -1209 806 -49 3 -296 -6
-580 -21 -739 -39 -898 -35 -1315 36 -288 49 -576 123 -920 236 l-140 47 165
27 c682 113 1039 317 1125 639 28 107 18 187 -56 455 -46 162 -110 369 -173
550 -30 88 -64 197 -76 243 -20 82 -50 257 -50 299 0 13 28 54 68 100 389 446
704 939 867 1358 129 329 183 622 172 940 -20 565 -217 1059 -626 1565 -338
418 -1202 1110 -1701 1362 -125 64 -324 138 -369 138 -51 0 -52 10 -8 68 211
277 315 549 337 887 l9 130 -48 202 c-29 118 -61 229 -80 268 -150 322 -436
524 -836 591 -106 18 -409 26 -511 14z m331 -691 c119 -29 222 -85 300 -163
98 -99 135 -200 135 -364 -1 -108 -12 -157 -56 -249 -67 -140 -194 -242 -345
-278 -84 -19 -248 -19 -324 0 -153 40 -301 150 -357 265 -60 126 -76 290 -38
412 33 109 112 222 203 291 116 89 319 125 482 86z m-70 -1809 c255 -40 630
-186 950 -370 385 -221 893 -602 1194 -895 425 -414 674 -840 750 -1286 18
-106 18 -106 -5 -243 -110 -654 -249 -1001 -463 -1159 -274 -203 -847 -316
-1816 -358 -364 -16 -1408 -6 -1715 15 -1142 81 -1530 245 -1724 727 -73 183
-131 412 -180 709 l-34 201 19 112 c54 326 225 680 482 1002 96 120 393 419
532 534 215 178 559 428 775 563 297 184 580 321 816 393 110 34 302 74 329
70 11 -2 52 -9 90 -15z m-1840 -4779 c984 -113 2582 -107 3634 14 69 8 126 13
128 11 2 -2 -10 -37 -27 -79 -58 -144 -65 -187 -65 -377 0 -190 14 -266 70
-382 14 -28 23 -53 21 -56 -2 -2 -37 6 -78 17 -194 53 -526 94 -988 123 -279
17 -1561 17 -1840 0 -462 -29 -794 -70 -988 -123 -41 -11 -76 -19 -78 -17 -2
3 7 28 21 56 48 99 67 188 72 338 7 181 -6 238 -114 493 -5 11 1 12 28 8 19
-4 111 -16 204 -26z m2520 -1260 c292 -5 573 -14 625 -20 466 -54 710 -163
776 -348 16 -45 18 -107 4 -133 -36 -67 -253 -127 -600 -165 -358 -39 -619
-47 -1685 -52 -593 -3 -1045 -9 -1051 -14 -7 -5 -63 -5 -140 1 -474 38 -747
104 -828 200 -31 38 -32 58 -7 141 38 122 116 203 237 249 91 34 901 115 1399
140 339 17 358 17 555 14 102 -2 424 -8 715 -13z m-674 -1167 c112 -33 257
-121 464 -278 455 -347 864 -554 1330 -671 278 -70 199 -62 1895 -190 674 -50
704 -55 887 -146 169 -83 263 -195 281 -334 16 -127 -55 -298 -150 -362 -122
-82 -138 -82 -714 3 l-489 73 -248 1 c-237 0 -258 2 -505 39 -141 22 -320 47
-397 56 -894 101 -1589 332 -2010 669 -144 114 -320 316 -385 439 -14 26 -27
47 -30 47 -3 0 -18 -22 -33 -50 -78 -139 -241 -321 -387 -432 -351 -266 -816
-449 -1493 -587 -525 -108 -952 -158 -1492 -177 -164 -5 -256 -16 -669 -78
-565 -85 -583 -85 -704 -3 -95 64 -166 235 -150 362 25 189 204 339 498 414
240 62 812 111 1300 111 441 0 987 64 1372 160 347 87 618 209 821 370 179
141 419 318 547 403 263 174 333 199 461 161z"/>
<path d="M5638 8803 l-3 -398 -312 -3 -313 -2 0 -360 0 -360 315 0 315 0 0
-405 0 -405 330 0 330 0 0 405 0 405 315 0 315 0 0 360 0 360 -312 2 -313 3
-3 398 -2 397 -330 0 -330 0 -2 -397z"/>
</g>
</svg>
