<?xml version="1.0" standalone="no"?>
<!DOCTYPE svg PUBLIC "-//W3C//DTD SVG 20010904//EN"
 "http://www.w3.org/TR/2001/REC-SVG-20010904/DTD/svg10.dtd">
<svg version="1.0" xmlns="http://www.w3.org/2000/svg"
 width="1280.000000pt" height="1280.000000pt" viewBox="0 0 1280.000000 1280.000000"
 preserveAspectRatio="xMidYMid meet">
<metadata>
Created by potrace 1.15, written by Peter Selinger 2001-2017
</metadata>
<g transform="translate(0.000000,1280.000000) scale(0.100000,-0.100000)"
fill="#000000" stroke="none">
<path d="M6240 9660 c-210 -37 -369 -113 -507 -244 -142 -134 -246 -294 -278
-427 -19 -83 -19 -215 1 -319 42 -221 151 -394 326 -517 84 -59 128 -104 128
-132 0 -27 -37 -69 -78 -90 -21 -10 -93 -37 -162 -61 -141 -48 -277 -111 -315
-146 -19 -17 -25 -33 -25 -63 0 -66 17 -88 124 -159 273 -179 387 -297 461
-481 60 -148 91 -444 75 -725 -15 -251 -48 -401 -126 -561 -76 -159 -177 -271
-394 -438 -98 -75 -103 -83 -125 -182 -10 -47 -72 -98 -146 -120 -199 -58
-350 -173 -472 -358 -65 -97 -100 -178 -127 -290 -37 -154 -25 -237 46 -316
26 -29 44 -58 42 -68 -2 -10 -37 -36 -78 -58 -95 -53 -129 -95 -136 -166 -14
-146 92 -208 445 -259 805 -116 2540 -100 3129 29 214 47 282 98 282 211 0 83
-41 135 -150 190 -49 25 -70 45 -70 66 0 2 18 24 40 48 53 58 70 102 70 183 0
321 -278 690 -586 778 -128 37 -166 72 -185 167 -13 66 -7 59 -208 219 -181
144 -292 299 -360 504 -47 144 -62 256 -68 503 -10 422 37 637 182 830 63 84
138 148 313 267 131 89 148 104 161 141 13 37 12 44 -5 80 -16 33 -32 46 -113
85 -51 26 -150 66 -220 89 -194 66 -234 92 -234 150 0 38 26 66 124 135 218
153 340 398 340 680 0 161 -45 287 -152 428 -181 239 -398 365 -702 406 -103
14 -142 13 -267 -9z"/>
</g>
</svg>
