<?xml version="1.0" standalone="no"?>
<!DOCTYPE svg PUBLIC "-//W3C//DTD SVG 20010904//EN"
 "http://www.w3.org/TR/2001/REC-SVG-20010904/DTD/svg10.dtd">
<svg version="1.0" xmlns="http://www.w3.org/2000/svg"
 width="1178.000000pt" height="1280.000000pt" viewBox="0 0 1178.000000 1280.000000"
 preserveAspectRatio="xMidYMid meet">
<metadata>
Created by potrace 1.15, written by Peter Selinger 2001-2017
</metadata>
<g transform="translate(0.000000,1280.000000) scale(0.100000,-0.100000)"
fill="#000000" stroke="none">
<path d="M5591 12778 c-4 -13 -62 -179 -127 -370 l-119 -348 -357 0 -358 0 2
-352 3 -352 393 -231 392 -230 0 -237 0 -237 -97 -60 c-191 -117 -404 -309
-571 -514 -148 -181 -296 -428 -337 -564 -25 -79 -53 -498 -56 -806 -1 -138
-4 -185 -13 -179 -351 269 -620 428 -945 559 -208 83 -400 135 -656 175 -107
16 -484 16 -605 -1 -442 -61 -893 -233 -1197 -457 -482 -355 -781 -807 -891
-1349 -39 -192 -47 -276 -47 -515 0 -341 38 -542 150 -804 138 -323 288 -571
633 -1045 206 -283 412 -586 516 -759 361 -601 565 -1434 651 -2667 17 -232
29 -307 69 -404 58 -144 209 -320 366 -427 311 -213 782 -370 1410 -469 1181
-187 3140 -179 4280 16 454 77 791 176 1075 314 290 141 475 304 579 511 59
117 74 198 91 478 50 844 155 1452 346 2006 111 321 336 703 792 1347 274 387
406 600 537 868 252 518 326 935 249 1415 -105 658 -426 1155 -984 1524 -375
249 -744 384 -1184 436 -114 13 -415 14 -526 1 -533 -63 -1018 -275 -1508
-664 -56 -44 -107 -84 -113 -88 -8 -7 -12 46 -13 188 -2 217 -14 439 -36 666
-17 171 -49 283 -122 415 -135 249 -423 535 -779 774 l-124 83 0 235 0 235
393 230 392 231 3 352 2 352 -358 0 -357 0 -126 368 -126 367 -292 3 -291 2
-9 -22z m516 -3094 c249 -51 427 -229 518 -519 45 -144 64 -255 75 -452 10
-175 -1 -556 -20 -656 -19 -100 -124 -386 -204 -557 -14 -30 -150 -253 -303
-496 l-278 -441 -23 45 c-13 25 -50 81 -84 126 -238 316 -513 806 -623 1111
-65 180 -74 229 -85 480 -27 616 61 975 292 1191 121 113 243 163 458 188 55
6 198 -4 277 -20z m-3424 -1360 c451 -62 912 -296 1427 -724 172 -143 506
-481 614 -620 252 -326 419 -629 567 -1029 109 -293 202 -703 240 -1059 l12
-113 -30 -37 c-58 -72 -229 -134 -568 -207 -574 -123 -1284 -181 -2350 -192
l-610 -6 -125 162 c-69 90 -189 247 -268 349 -580 757 -869 1314 -888 1712 -5
108 -3 130 45 382 53 281 78 362 161 529 171 344 432 581 780 707 430 156 667
191 993 146z m6907 5 c339 -41 620 -162 897 -385 349 -283 538 -652 582 -1134
27 -287 -2 -492 -106 -755 -43 -109 -172 -362 -237 -465 -27 -41 -247 -340
-490 -664 l-441 -589 -540 6 c-1002 12 -1647 51 -2155 128 -340 52 -779 203
-840 289 -21 30 -21 34 -10 138 78 713 296 1340 649 1865 130 194 245 332 446
532 569 570 1165 927 1715 1025 141 26 363 29 530 9z m-3618 -4388 c198 -70
476 -134 653 -151 86 -8 547 -46 2455 -200 201 -17 366 -30 366 -30 1 0 -14
-57 -32 -127 -102 -382 -183 -922 -210 -1386 -7 -114 -8 -119 -28 -114 -12 2
-75 21 -141 41 -635 196 -1492 324 -2455 366 -303 13 -1070 13 -1371 0 -965
-42 -1821 -171 -2496 -376 -62 -19 -117 -34 -121 -34 -5 0 -12 51 -16 113 -26
423 -116 1009 -215 1403 l-28 112 61 6 c33 3 133 10 221 16 1235 77 1816 127
2410 205 398 53 779 134 862 184 1 1 39 -12 85 -28z m763 -2382 c1216 -44
1855 -210 1855 -481 0 -50 -25 -77 -104 -113 -200 -92 -631 -172 -1161 -215
-515 -42 -1562 -63 -2060 -41 -1220 52 -1886 148 -2037 292 -31 29 -38 43 -38
73 0 180 294 310 870 386 796 103 1672 136 2675 99z"/>
</g>
</svg>
