<?xml version="1.0" standalone="no"?>
<!DOCTYPE svg PUBLIC "-//W3C//DTD SVG 20010904//EN"
 "http://www.w3.org/TR/2001/REC-SVG-20010904/DTD/svg10.dtd">
<svg version="1.0" xmlns="http://www.w3.org/2000/svg"
 width="1095.000000pt" height="1280.000000pt" viewBox="0 0 1095.000000 1280.000000"
 preserveAspectRatio="xMidYMid meet">
<metadata>
Created by potrace 1.15, written by Peter Selinger 2001-2017
</metadata>
<g transform="translate(0.000000,1280.000000) scale(0.100000,-0.100000)"
fill="#000000" stroke="none">
<path d="M623 12497 l-313 -302 0 -997 0 -997 956 -838 956 -838 0 -2180 0
-2180 -1111 -1122 -1111 -1123 0 -752 0 -753 207 -207 208 -208 5060 0 5060 0
208 208 207 207 0 753 0 752 -1111 1123 -1111 1122 0 2180 0 2180 956 838 956
838 0 997 0 997 -313 302 -312 302 -983 0 -984 1 -193 -182 -194 -183 -1 -287
0 -288 -305 0 -305 0 0 283 0 282 -188 188 -187 187 -1200 0 -1200 0 -188
-188 -187 -187 0 -283 0 -282 -315 0 -315 0 0 288 0 287 -183 183 -182 182
-985 -1 -985 0 -312 -302z m1947 -871 l0 -305 167 -155 167 -156 706 0 707 0
167 156 166 155 0 280 0 279 825 0 825 0 0 -279 0 -280 166 -155 167 -156 707
0 706 0 167 156 167 155 0 305 0 304 608 0 609 0 141 -152 141 -153 -2 -614
-2 -614 -740 -599 -740 -598 -2920 0 -2920 0 -740 598 -740 599 -2 614 -2 614
141 153 141 152 609 0 608 0 0 -304z m5390 -5096 l0 -1930 -2485 0 -2485 0 0
1930 0 1930 2485 0 2485 0 0 -1930z m807 -3343 l712 -692 -2005 -3 c-1103 -1
-2905 -1 -4004 0 l-1999 3 712 692 712 692 2580 0 2580 0 712 -692z m1423
-1892 l0 -425 -4715 0 -4715 0 0 425 0 425 4715 0 4715 0 0 -425z"/>
</g>
</svg>
